<svg width="189" height="105" viewBox="0 0 189 105" fill="none" xmlns="http://www.w3.org/2000/svg">
<g clip-path="url(#clip0_175_7960)">
<g clip-path="url(#clip1_175_7960)">
<path fill-rule="evenodd" clip-rule="evenodd" d="M103.422 17.7064C109.309 18.9611 114.222 24.254 115.178 30.3734C115.454 32.142 115.742 34.1581 115.818 34.854C115.923 35.8182 116.229 35.9906 117.107 35.5791C124.815 31.9594 131.761 34.4151 137.664 42.8473C139.392 45.3161 140.302 47.5497 141.906 53.2564L143.949 60.5224L147.024 60.0355C148.717 59.7677 150.451 59.6591 150.88 59.7948C151.309 59.9299 152.509 62.533 153.548 65.579C154.587 68.6253 156.034 72.6279 156.763 74.4743L158.09 77.8306L155.363 79.3544C152.909 80.7262 152.785 80.9026 154.128 81.119C154.949 81.2507 155.719 81.7273 155.84 82.1775C155.96 82.6276 156.367 82.9131 156.745 82.812C157.229 82.6824 157.666 83.9579 158.228 87.135C160.828 101.819 160.627 101.08 162.015 101.073C163.366 101.066 165.33 104.129 164.9 105.572C164.771 106.003 165.046 107.49 165.511 108.878C165.975 110.266 166.212 112.022 166.036 112.779C165.801 113.793 166.608 116.189 169.099 121.869C170.958 126.11 172.629 130.741 172.813 132.159C173.164 134.876 173.115 134.816 182.291 143.916C184.298 145.907 186.215 148.523 187.087 150.464C187.886 152.241 189.6 154.746 190.896 156.031C193 158.116 193.337 158.814 194.032 162.531C194.671 165.946 195.625 168.178 199.329 174.926C204.764 184.828 205.319 187.362 202.362 188.775C201.347 189.26 198.454 190.12 195.932 190.685L191.347 191.715L190.687 188.636C187.975 175.973 186.336 172.604 181.712 170.185C180.298 169.445 178.736 168.092 178.239 167.179C177.743 166.266 175.655 163.44 173.6 160.899C171.035 157.729 169.63 155.412 169.122 153.514C168.184 150.013 166.886 148.217 163.67 145.967C157.409 141.586 156.393 140.642 155.163 138.062C153.185 133.912 148.969 128.371 145.765 125.711C144.181 124.394 142.792 122.974 142.68 122.556C142.333 121.26 141.613 121.983 140.884 124.357C140.429 125.843 139.59 126.906 138.465 127.422C137.031 128.082 136.273 129.582 133.93 136.409C132.382 140.917 130.829 144.917 130.479 145.299C130.129 145.682 128.833 146.27 127.599 146.606C126.005 147.041 125.265 147.606 125.044 148.56C124.568 150.615 126.057 155.337 127.625 156.743C128.793 157.791 129.207 158.971 130.167 163.994C131.33 170.079 131.745 177.099 131.037 178.697C130.46 179.997 133.811 190.097 136.539 195.279C138.853 199.678 138.893 199.83 138.011 200.961C137.373 201.78 136.165 202.265 133.929 202.601C131.904 202.906 129.717 203.716 127.898 204.837C125.894 206.07 122.997 207.087 118.183 208.248L111.322 209.902L110.606 207.985C109.917 206.14 110.033 205.944 113.735 202.732C117.866 199.148 120.888 193.798 120.743 190.324C120.602 186.938 119.096 182.065 117.58 180.096C116.537 178.741 115.683 176.502 114.825 172.879C114.142 169.99 112.192 163.991 110.493 159.549C108.07 153.215 107.468 151.086 107.699 149.686C107.862 148.704 107.876 147.457 107.73 146.915C107.585 146.372 107.776 145.318 108.156 144.573C108.536 143.829 109.197 140.294 109.625 136.719C110.718 127.593 112.125 121.779 114.648 115.952C116.237 112.285 116.742 110.189 116.515 108.206C116.12 104.739 115.444 104.107 113.318 105.211C109.699 107.09 107.613 104.411 104.016 93.2698C101.443 85.3009 101.339 84.7363 102.176 83.2781C102.665 82.4278 103.38 81.5233 103.765 81.2675C104.258 80.9415 104.168 80.181 103.464 78.7093L102.462 76.6157L97.5487 81.131C94.8461 83.6145 91.583 86.1179 90.2966 86.6937C89.0104 87.2701 87.8748 88.0191 87.7738 88.3581C87.5349 89.1597 85.4757 88.6847 80.7555 86.739C76.8656 85.1352 76.1736 84.3687 73.6541 78.8746C72.8752 77.1769 72.2991 76.7102 71.0028 76.7293C69.495 76.7518 69.3311 76.549 69.1663 74.449C68.5999 67.2343 68.4459 66.8263 65.6878 65.2643C64.265 64.458 62.6307 63.4472 62.0559 63.0172C61.1816 62.364 59.6688 62.5955 52.815 64.432C45.296 66.4467 44.5692 66.5399 44.0146 65.5634C43.4467 64.5638 42.7024 64.6935 31.8444 67.6849C20.6539 70.7681 20.2679 70.8318 19.9529 69.6563C19.6389 68.4845 19.9566 68.3616 28.9097 66.199L38.1922 63.9572L37.7836 62.4324C37.5119 61.4185 37.7517 60.6928 38.4992 60.2659C39.4178 59.7417 39.4866 59.1132 38.8758 56.834C38.4645 55.2989 38.4002 53.9703 38.7327 53.8812C39.0653 53.7921 39.7402 55.2227 40.2326 57.0603C41.0888 60.2557 42.0908 61.2425 42.312 59.1075C42.4013 58.2437 45.1256 57.377 61.7841 52.9134C72.5883 50.0184 81.0885 47.4862 81.0084 47.1873C80.9293 46.8921 81.3704 46.3617 81.9887 46.0085C82.6615 45.6245 82.976 44.8559 82.7722 44.0953C82.2333 42.0839 83.4115 42.338 84.4228 44.4506C85.3003 46.284 85.5168 46.3543 89.5039 46.0959C91.794 45.9478 93.7491 45.6857 93.8476 45.5141C93.946 45.3419 93.9044 44.0307 93.7548 42.5993C93.4922 40.0783 93.4212 39.9996 91.486 40.0865C90.387 40.1355 89.0825 39.7415 88.5869 39.2102C87.3548 37.8917 86.3375 33.6522 86.3163 29.7493C86.2999 26.7808 86.5664 26.225 89.5202 23.0681C92.2386 20.1624 93.3459 19.4262 96.613 18.3529C99.6989 17.3385 101.08 17.2073 103.422 17.7064ZM75.4818 62.3796C75.7413 64.1318 78.7493 67.323 81.4177 68.6785C82.8842 69.423 82.9402 69.378 83.6208 66.9116C84.5127 63.6782 84.4847 63.6102 81.9799 62.9062C80.8235 62.5813 79.7863 61.9756 79.675 61.5601C78.9815 58.9722 75.0888 59.7327 75.4818 62.3796Z" fill="#1E99E7"/>
</g>
</g>
<defs>
<clipPath id="clip0_175_7960">
<rect width="189" height="105" fill="white" transform="matrix(-1 0 0 1 189 0)"/>
</clipPath>
<clipPath id="clip1_175_7960">
<rect width="170.42" height="102.54" fill="white" transform="matrix(-0.965926 0.258819 0.258819 0.965926 164.892 0)"/>
</clipPath>
</defs>
</svg>