<svg width="170" height="81" viewBox="0 0 170 81" fill="none" xmlns="http://www.w3.org/2000/svg">
<g clip-path="url(#clip0_175_7977)">
<path d="M105.147 72.0034C103.902 71.3289 102.73 70.5544 101.489 69.7357C100.912 69.3546 100.314 68.9598 99.6708 68.548C98.1003 67.5451 98.1657 66.6889 98.185 66.5632L100.012 63.4181C100.08 63.4325 100.143 63.4347 100.204 63.4089C100.299 63.3828 100.371 63.3472 100.427 63.3214C100.511 63.2804 100.616 63.2287 101.349 63.6493C102.117 64.0899 103.846 65.2037 104.808 65.8282C105.197 66.0802 105.493 66.2736 105.614 66.3538C105.75 66.6944 105.806 67.1674 105.491 67.7107C104.851 68.812 104.671 69.5201 102.262 69.238C102.226 69.1651 101.989 69.4848 102.654 69.7706C103.32 70.0559 104.367 69.8181 104.838 69.5905C105.308 69.3626 106.67 68.3614 106.791 68.1953L107.539 68.3854C107.539 68.3854 108.316 68.4959 108.76 68.2039L108.854 68.2655L107.916 69.881C107.916 69.881 107.102 70.7054 106.805 71.7931C106.739 72.0354 106.751 72.1754 106.802 72.2965C106.419 72.4117 105.895 72.4077 105.147 72.0034ZM42.0395 23.8957L42.2214 24C42.4078 24.107 42.6476 24.0413 42.7565 23.8538C42.8426 23.7055 42.8192 23.5282 42.7155 23.4059L42.7287 23.3832L52.0766 28.7482L54.0776 29.8965L53.68 30.5812L42.0374 23.8994L42.0395 23.8957ZM24.6516 13.9214C25.1052 13.742 25.588 13.546 25.588 13.546L26.2994 13.9543L36.2273 19.652C36.2418 19.6776 36.2542 19.7057 36.2723 19.7271L36.2586 19.7507L37.0731 20.2181C36.9456 20.2263 36.8231 20.289 36.7536 20.4086C36.6446 20.5962 36.7073 20.8354 36.8942 20.9427L39.6744 22.5383C39.6744 22.5383 39.6737 22.5416 39.6731 22.5425L24.6516 13.9214ZM25.0008 7.31234C25.3091 6.78153 25.9868 6.59581 26.5127 6.89763L28.3419 7.94742L28.1875 10.4237L25.3954 8.82128C24.8695 8.51946 24.693 7.84222 25.0008 7.31234ZM44.6792 19.8872L44.8737 19.5523L50.6695 22.8786L54.4118 25.0263L54.4753 25.2618L53.4825 26.235L44.1749 20.8932L44.448 20.4229L44.388 20.3885L44.6792 19.8872ZM57.8207 27.223L57.8202 27.224L59.5156 28.197L59.5449 28.2033C60.7477 28.4871 61.786 28.8846 62.7187 29.4199C63.7192 29.9941 64.3677 30.5948 64.8891 31.077C65.2128 31.3767 65.4677 31.613 65.7192 31.7573L68.0889 33.1173L68.1191 33.1242C69.2106 33.3724 70.167 33.7291 70.9614 34.185C71.8551 34.6979 72.3782 35.2328 72.76 35.6238C72.9324 35.8003 73.0742 35.9347 73.2127 36.037C72.9458 35.9454 72.7855 36.0911 72.685 36.1832C72.5582 36.2995 72.4151 36.4311 71.744 36.046L68.6455 34.2677C68.3784 34.1144 68.389 34.0656 68.4046 33.9914C68.4588 33.7361 68.4076 33.5287 67.9807 33.2837L64.3287 31.1878C63.9022 30.943 63.695 31.0021 63.5002 31.1767C63.4433 31.2273 63.4062 31.2608 63.1387 31.1072L60.1798 29.4091C59.9127 29.2558 59.9233 29.2071 59.9394 29.1331C59.9931 28.8776 59.942 28.6702 59.515 28.4252L57.9547 27.5297L57.4228 27.2287L56.8706 28.1795L56.243 27.8193L56.8972 26.693L57.8207 27.223ZM162.137 96.5355C162.113 96.0813 161.798 95.6335 161.084 95.0363C160.612 94.644 159.723 93.9015 158.572 92.9411C153.584 88.7767 144.298 81.0234 141.815 79.1175C141.204 78.6493 140.657 78.2777 140.138 77.9804C138.985 77.3184 138.222 77.1732 137.55 77.045C137.134 76.9659 136.774 76.8974 136.354 76.7161C136.124 76.617 135.861 76.4835 135.577 76.3202C134.373 75.6296 133.1 74.603 132.98 74.5053C132.8 74.3348 130.052 71.7331 129.144 70.8744C128.847 70.594 128.573 70.381 128.327 70.2401C127.866 69.9754 127.599 70.0184 127.482 70.0688L127.403 70.1026L127.348 70.169C127.347 70.1699 127.342 70.176 127.339 70.1799C126.56 69.5498 125.412 68.6351 125.412 68.6351L124.762 67.8602C125.561 66.3667 124.498 64.2146 124.067 63.7954C124.123 63.7531 124.176 63.7005 124.223 63.6192C124.52 63.1073 124.358 60.3209 122.638 59.334L88.8457 39.9402L88.8897 39.8645L88.6521 39.3345L88.0671 38.9988L88.0977 38.9461L89.8114 39.9296L90.5072 38.7318C90.691 38.4153 90.7237 38.3337 90.4049 38.1507C89.9175 37.871 89.1352 38.4586 89.1352 38.4586L88.1846 37.9131C88.3084 37.5443 88.2029 37.1549 87.9038 36.9832C87.6051 36.8118 87.2126 36.9155 86.9537 37.2067L86.7764 37.1049C86.3365 35.8947 84.636 35.5993 84.636 35.5993L83.9246 35.191L83.8475 34.8998L82.7948 34.2957C82.7121 33.0951 81.6839 33.6581 81.6839 33.6581L80.748 33.121L80.5742 33.4203L80.2984 33.2621L80.297 33.2644C80.2584 33.0796 80.1691 32.9199 79.9501 32.7943C79.0147 32.2574 78.5735 32.6595 78.1624 33.3673L77.9773 33.686C77.9381 33.6137 77.8789 33.5452 77.7946 33.4968C77.6947 33.4395 77.5861 33.4203 77.4918 33.4345L77.6509 33.1606C77.8189 32.8714 77.8658 32.7148 77.476 32.491L77.1507 32.3044C77.1488 32.2793 77.1547 32.2555 77.149 32.2295C77.097 31.9804 76.8889 31.7667 76.4514 31.5156C75.9099 31.2048 72.6121 29.3953 69.1205 27.4795C65.7185 25.6127 62.2006 23.6824 61.6417 23.3617C61.2711 23.149 60.9225 23.0899 60.6001 23.1716L60.1709 22.9253C59.8328 22.7313 59.0972 22.3288 58.5797 23.22L58.6709 23.0629L46.7676 16.2315C46.6023 16.1365 46.4416 16.0609 46.2841 15.9977C46.2324 15.9773 46.1826 15.9641 46.132 15.9461C46.0269 15.9104 45.9226 15.8765 45.8208 15.8531C45.7639 15.8396 45.7079 15.8308 45.6522 15.8216C45.5581 15.8058 45.4653 15.7932 45.3739 15.7876C45.3183 15.7834 45.2637 15.7816 45.2088 15.7815C45.1171 15.7806 45.0264 15.7853 44.9367 15.7936C44.8872 15.7978 44.8373 15.8018 44.7885 15.8089C44.6899 15.8231 44.5932 15.8434 44.4966 15.8668C44.4591 15.8755 44.4209 15.8825 44.3838 15.8926C44.1102 15.9684 43.8437 16.076 43.5804 16.2033C43.5732 16.2072 43.5663 16.2107 43.5587 16.2143C43.4297 16.2776 43.3009 16.3448 43.1726 16.4153L43.159 16.4229C42.7334 16.6572 42.3109 16.9198 41.8743 17.1521C41.8521 17.164 41.8295 17.1745 41.8073 17.1864C41.5982 17.2961 41.3854 17.3976 41.1676 17.4845C41.1546 17.4899 41.1418 17.4962 41.1291 17.5012C41.062 17.5274 40.9934 17.5477 40.9255 17.571C40.5773 17.6889 40.2138 17.7637 39.8286 17.7717L39.7209 17.71L39.7034 17.7097C39.0947 17.6986 38.4892 17.5149 37.8502 17.1482L37.7902 17.1137L37.7615 17.1632C37.7337 17.1583 37.7031 17.1617 37.6731 17.1617L28.4525 11.8699L28.8719 11.1479L29.2168 4.90038C29.4531 4.87215 29.7669 4.6063 29.9977 4.209C30.2891 3.7073 30.3362 3.19291 30.1044 3.05987L29.4965 2.71099L29.4708 2.69627L28.4786 2.12681L28.3018 2.02533L27.845 1.76321C27.6132 1.63018 27.1887 1.92793 26.8973 2.42963C26.6716 2.81815 26.5944 3.213 26.6782 3.43358L26.6145 3.39704L26.5858 3.47482C26.5783 3.49514 25.8307 5.51209 24.7389 6.69267C24.7318 6.68801 24.7254 6.68433 24.7204 6.68143C24.6333 6.63148 24.4834 6.57623 24.4769 6.57374L24.4223 6.55412L23.7346 7.73815C23.6817 7.82296 22.7692 8.49605 22.1869 8.16189L22.1381 8.24597L21.3231 7.77825L21.2549 7.73908C20.8499 7.50667 20.198 7.87603 19.7985 8.5639C19.3993 9.25132 19.4037 9.9967 19.8086 10.2291L19.8769 10.2683L21.3194 11.0962C21.3194 11.0962 22.1672 11.7398 22.0229 13.1513C22.0775 13.1826 22.6677 13.8552 23.6609 14.1517C23.7976 14.2413 23.941 14.331 24.0959 14.4198L39.6057 23.3211C39.6382 23.75 39.804 24.2554 40.3363 24.5609L40.8823 24.8743C40.8823 24.8743 41.2512 24.3875 41.6282 24.6039L41.6813 24.5124L54.7051 31.9869C54.3495 32.9778 55.1164 33.4198 56.2997 34.0989C56.7683 34.3678 57.4679 34.9091 58.3531 35.5934C60.0175 36.8818 62.5331 38.8288 65.7787 40.6915C70.3528 43.3166 73.1181 45.3607 74.4811 47.1248C74.7632 47.5466 75.1753 47.8183 75.5414 48.0283C75.7246 48.1335 75.9149 48.2328 76.1155 48.3375C76.3256 48.447 76.5423 48.5597 76.7594 48.6843C76.95 48.7937 77.1233 48.8235 77.2892 48.7765C77.3588 48.7566 77.4199 48.7197 77.4796 48.6769C77.8991 48.8579 78.2288 48.8371 78.4861 48.7076L78.5922 48.8214L78.629 48.8444C78.6994 48.8903 81.6405 50.7852 85.1251 53.0315L85.6807 54.5053C85.3284 55.0256 83.7013 57.2727 80.3805 59.6397C76.8988 62.122 70.7881 65.2489 61.4525 66.0464L61.4022 66.0551C61.1656 66.1207 61.1654 66.3134 61.1645 66.8303C61.1641 67.1307 61.1716 67.5711 61.1874 68.137C61.2133 69.0862 61.2619 70.4064 61.3312 72.0613C61.4503 74.8755 61.591 77.722 61.5926 77.7506L61.6046 78.0076L61.8623 78.012C61.915 78.0127 67.2037 78.0636 74.14 75.9149C80.0201 74.0946 88.2267 70.2931 95.1907 62.4831C95.4733 62.6139 95.8981 62.8626 95.9895 63.2132L96.0738 63.2616C95.5479 64.1806 95.101 65.1573 95.4809 65.6537L95.4777 65.6519C95.4777 65.6519 94.8529 67.2576 94.9122 67.9033L95.2718 68.1096L95.7134 67.3492C95.7134 67.3492 95.6418 66.7963 96.1089 66.6683L96.2761 66.7464L96.5482 66.2779L96.5432 66.2751C96.7467 66.2705 96.9616 66.1068 97.0602 66.6205C97.0481 66.6308 97.136 66.6867 97.2578 66.7567C97.2702 67.3243 97.5603 68.3285 99.158 69.3489C99.797 69.7569 100.391 70.1493 100.966 70.5288C102.028 71.2298 103.04 71.8991 104.1 72.5073C104.295 72.619 104.49 72.7281 104.689 72.8356C105.812 73.4438 106.641 73.3546 107.207 73.135C107.342 73.6673 107.392 74.6014 107.12 76.447C106.45 80.9896 106.238 84.258 105.475 86.4403C104.713 88.6233 104.135 89.1829 107.351 90.6095C110.567 92.0366 112.854 90.413 113.38 89.3518C113.905 88.2907 114.344 82.777 114.785 80.567C115.226 78.357 115.577 77.4045 116.557 76.7617C117.294 76.2781 118.358 75.2491 118.586 74.6242L118.768 74.7429L119.68 74.181C120.144 74.6275 121.127 75.5681 121.696 76.0768C121.847 76.2122 121.969 76.3302 122.08 76.4358C121.749 77.3367 122.884 78.731 124.623 80.8672C125.158 81.5249 125.766 82.2709 126.388 83.0746C128.938 86.3675 143.9 107.547 145.567 110.463C146.005 111.231 146.483 111.765 146.989 112.055C148.124 112.707 149.371 112.16 150.506 110.507C152.361 107.67 160.497 98.8278 161.322 97.9587C161.792 97.4626 162.164 97.0703 162.137 96.5355Z" fill="#B620FD"/>
</g>
<defs>
<clipPath id="clip0_175_7977">
<rect width="170" height="81" fill="white"/>
</clipPath>
</defs>
</svg>